<?xml version="1.0" encoding="iso-8859-1"?>
<!-- Generator: Adobe Illustrator 19.0.0, SVG Export Plug-In . SVG Version: 6.00 Build 0)  -->
<svg version="1.1" id="Layer_1" xmlns="http://www.w3.org/2000/svg" xmlns:xlink="http://www.w3.org/1999/xlink" x="0px" y="0px"
	 viewBox="0 0 460 460" style="enable-background:new 0 0 460 460;" xml:space="preserve">
<g>
	<path style="fill:#89EBFF;" d="M230,0C102.974,0,0,102.975,0,230c0,15.938,1.621,31.498,4.708,46.523H230l225.327-92.876
		C433.881,78.84,341.147,0,230,0z"/>
	<path style="fill:#2DB8D4;" d="M301.775,43.398c-14.028-5.107-29.23-4.433-42.806,1.897C245.395,51.626,235.106,62.838,230,76.868
		V460c127.026,0,230-102.975,230-230c0-15.667-1.573-30.965-4.558-45.752L305.196,34.001L301.775,43.398z"/>
	<rect x="220" y="86.868" style="fill:#FF5347;" width="20" height="105"/>
	<path style="fill:#557714;" d="M299.801,96.356l16.383-11.472c-10.119-14.451-25.248-24.095-42.601-27.154
		c-5.004-0.882-10.02-1.168-14.974-0.912c11.544-7.055,26.073-8.999,39.747-4.023l6.84-18.794
		c-34.197-12.449-72.146,5.249-84.593,39.447c-0.399,1.096-0.603,2.253-0.603,3.42v11.108h20c20.57,4.58,36,22.962,36,44.892h20
		c0-23.607-12.466-44.348-31.154-56.015C278.382,77.671,291.437,84.411,299.801,96.356z"/>
	<path style="fill:#7FB21E;" d="M239.397,73.448c-12.447-34.197-50.396-51.894-84.593-39.447l6.84,18.794
		c13.707-4.988,28.274-3.023,39.832,4.074c-22.004-1.165-44.118,8.674-57.66,28.016l16.383,11.472
		c8.364-11.944,21.419-18.684,34.954-19.502C176.466,88.521,164,109.262,164,132.868h20c0-21.93,15.43-40.313,36-44.892h20V76.868
		C240,75.702,239.796,74.544,239.397,73.448z"/>
	<path style="fill:#FFF0CF;" d="M230,170c-71.797,0-130,58.203-130,130h130l20-65L230,170z"/>
	<path style="fill:#FFC240;" d="M230,170v130h130C360,228.203,301.797,170,230,170z"/>
	<path style="fill:#096C80;" d="M411.8,250c-10.272,16.092-26.802,26.596-45.469,26.596c-18.652,0-35.136-10.504-45.423-26.596
		c-10.302,16.092-26.802,26.596-45.454,26.596c-18.667,0-35.151-10.504-45.438-26.596l-10.012,121.896l216.249-40
		c8.58-17.334,15.039-35.905,19.038-55.373C437.437,275.823,421.714,265.531,411.8,250z"/>
	<path style="fill:#0C8FAA;" d="M411.8,310c-10.272,16.092-26.802,26.596-45.469,26.596c-18.652,0-35.136-10.504-45.423-26.596
		c-10.302,16.092-26.802,26.596-45.454,26.596c-18.667,0-35.151-10.504-45.438-26.596c-0.004,0.027,0-60,0-60
		c-10.272,16.092-26.802,26.596-45.453,26.596c-18.652,0-35.152-10.504-45.438-26.596c-10.302,16.092-26.802,26.596-45.453,26.596
		c-18.653,0-35.152-10.504-45.438-26.596c-9.914,15.532-25.666,25.823-43.522,26.522c4,19.471,10.467,38.041,19.052,55.376
		L230.008,460c90.432-0.003,168.658-52.205,206.231-128.11C426.427,327.335,417.983,319.688,411.8,310z"/>
	<path style="fill:#2DB8D4;" d="M184.562,336.596c-18.652,0-35.152-10.504-45.438-26.596
		c-10.302,16.092-26.802,26.596-45.453,26.596c-18.653,0-35.152-10.504-45.438-26.596c-6.186,9.69-14.644,17.34-24.468,21.895
		C61.338,407.8,139.567,460,230,460c0.007,0,0.015-150,0.015-150C219.744,326.092,203.214,336.596,184.562,336.596z"/>
</g>
<g>
</g>
<g>
</g>
<g>
</g>
<g>
</g>
<g>
</g>
<g>
</g>
<g>
</g>
<g>
</g>
<g>
</g>
<g>
</g>
<g>
</g>
<g>
</g>
<g>
</g>
<g>
</g>
<g>
</g>
</svg>
